<?xml version="1.0" standalone="no"?>
<!DOCTYPE svg PUBLIC "-//W3C//DTD SVG 20010904//EN"
 "http://www.w3.org/TR/2001/REC-SVG-20010904/DTD/svg10.dtd">
<svg version="1.0" xmlns="http://www.w3.org/2000/svg"
 width="500.000000pt" height="500.000000pt" viewBox="0 0 500.000000 500.000000"
 preserveAspectRatio="xMidYMid meet">

<g transform="translate(0.000000,500.000000) scale(0.100000,-0.100000)"
fill="#000000" stroke="none">
<path d="M1272 4060 c0 -14 2 -19 5 -12 2 6 2 18 0 25 -3 6 -5 1 -5 -13z"/>
<path d="M2233 3984 c-95 -81 -120 -105 -73 -73 77 52 182 139 167 139 -8 0
-50 -30 -94 -66z"/>
<path d="M2440 4027 c0 -2 19 -19 43 -37 23 -19 36 -26 28 -17 -15 19 -71 61
-71 54z"/>
<path d="M2269 2727 c-52 -40 -153 -114 -222 -164 -95 -70 -127 -98 -127 -115
0 -12 25 -96 56 -187 33 -97 56 -183 56 -207 0 -22 -25 -117 -56 -210 -31 -94
-56 -178 -56 -187 0 -16 50 -55 319 -249 l135 -97 45 33 c345 249 411 299 411
315 0 9 -27 97 -60 195 -33 98 -60 188 -60 200 0 11 28 105 62 207 34 102 59
192 56 200 -3 8 -70 62 -149 118 -79 57 -177 128 -217 158 -40 30 -78 56 -85
58 -6 2 -55 -29 -108 -68z m183 -185 c31 -6 49 -21 103 -86 36 -43 65 -87 65
-97 0 -48 -43 -189 -64 -207 -11 -11 -54 -34 -95 -52 -85 -37 -97 -36 -204 15
-86 40 -96 56 -118 187 l-13 76 65 78 c52 63 72 80 100 85 48 9 117 9 161 1z
m18 -547 c124 -65 124 -65 128 -200 4 -133 12 -122 -130 -202 l-93 -52 -85 46
c-150 81 -140 66 -140 202 0 78 4 123 13 134 11 16 192 116 210 117 5 0 48
-20 97 -45z m-174 -436 c35 -21 134 -118 134 -130 0 -21 -41 -99 -52 -99 -7 0
-29 14 -48 31 -19 17 -54 43 -76 59 -52 37 -58 52 -32 80 12 12 21 35 22 51 1
34 8 36 52 8z"/>
</g>
</svg>
